<svg xmlns="http://www.w3.org/2000/svg" xmlns:xlink="http://www.w3.org/1999/xlink" width="82" height="71" viewBox="0 0 82 71"><defs><path id="dzxaa" d="M88.31 2601.567l-43.753 32.846c-7.778 5.84-18.818 4.268-24.658-3.51l-1.171-1.56c-5.84-7.779-4.267-18.819 3.51-24.658l43.755-32.847c7.779-5.84 18.818-4.267 24.658 3.511l1.17 1.56c5.84 7.779 4.268 18.819-3.51 24.658"/><path id="dzxab" d="M25.866 2594.79h43.871l.548 24.677H24.77z"/><path id="dzxac" d="M94.89 2636.197H76.904a1.383 1.383 0 1 1 0-2.767H94.89a1.383 1.383 0 1 1 0 2.767"/><path id="dzxad" d="M69.983 2636.197h-49.81a1.383 1.383 0 1 1 0-2.767h49.81a1.383 1.383 0 1 1 0 2.767"/><path id="dzxae" d="M69.989 2607.367a1.384 1.384 0 0 1-1.384-1.383v-9.907H27.097v9.907a1.383 1.383 0 1 1-2.767 0v-11.29c0-.765.62-1.384 1.384-1.384h44.275c.764 0 1.384.619 1.384 1.383v11.29c0 .766-.62 1.384-1.384 1.384"/><path id="dzxaf" d="M34.014 2636.195h-.023a1.384 1.384 0 0 1-1.36-1.406l.115-6.918c.012-.757.63-1.361 1.383-1.361h.023a1.385 1.385 0 0 1 1.361 1.407l-.116 6.918a1.384 1.384 0 0 1-1.383 1.36"/><path id="dzxag" d="M61.574 2636.195h-.023a1.385 1.385 0 0 1-1.36-1.406l.115-6.918c.012-.757.63-1.361 1.383-1.361h.023a1.385 1.385 0 0 1 1.361 1.407l-.116 6.918a1.384 1.384 0 0 1-1.383 1.36"/><path id="dzxah" d="M83.704 2636.197H83.7a1.382 1.382 0 0 1-1.38-1.386l.116-49.81a1.383 1.383 0 0 1 1.383-1.381h.004a1.384 1.384 0 0 1 1.38 1.386l-.116 49.81a1.384 1.384 0 0 1-1.383 1.381"/><path id="dzxai" d="M43.702 2627.898H20.18v-18.444c0-2.047 1.854-3.694 4.152-3.694.483 0 .954.07 1.383.221.594.18 1.12.471 1.55.858.747.664 1.217 1.591 1.217 2.615v10.142h38.741v-10.142c0-.871.346-1.688.913-2.31a4.025 4.025 0 0 1 1.854-1.163c.43-.152.899-.221 1.384-.221 1.148 0 2.186.415 2.933 1.08.747.663 1.217 1.59 1.217 2.614v18.444H53.388"/><path id="dzxaj" d="M75.518 2629.285H53.38a1.384 1.384 0 1 1 0-2.768h20.754v-17.06c0-.587-.268-1.148-.752-1.579-.53-.471-1.245-.73-2.015-.73-.347 0-.656.046-.92.14-.55.166-.97.428-1.287.782-.365.4-.56.889-.56 1.388v10.141c0 .766-.62 1.384-1.385 1.384h-38.74a1.383 1.383 0 0 1-1.384-1.384v-10.141c0-.588-.267-1.149-.752-1.58a2.646 2.646 0 0 0-1.031-.568 2.857 2.857 0 0 0-.984-.163c-1.526 0-2.767 1.037-2.767 2.31v17.06h22.138a1.383 1.383 0 1 1 0 2.768H20.173a1.383 1.383 0 0 1-1.383-1.384v-18.443c0-2.8 2.483-5.078 5.534-5.078.663 0 1.285.101 1.848.301a5.29 5.29 0 0 1 2.013 1.135c1.06.942 1.674 2.271 1.674 3.642v8.758h35.973v-8.758c0-1.19.453-2.34 1.275-3.243a5.373 5.373 0 0 1 2.483-1.557c.492-.177 1.113-.278 1.777-.278 1.448 0 2.817.508 3.852 1.43 1.069.948 1.682 2.277 1.682 3.648v18.443c0 .765-.62 1.384-1.383 1.384"/><path id="dzxak" d="M47.854 2620.979a1.383 1.383 0 0 1-1.384-1.384v-8.302a1.383 1.383 0 1 1 2.767 0v8.302c0 .765-.619 1.384-1.383 1.384"/><path id="dzxal" d="M47.854 2602.995a1.383 1.383 0 0 1-1.384-1.383v-6.918a1.383 1.383 0 1 1 2.767 0v6.918c0 .765-.619 1.383-1.383 1.383"/><path id="dzxam" d="M77.362 2571.167l.922-2.767h11.07l5.534 16.604H72.75l1.845-5.534"/><path id="dzxan" d="M94.891 2586.39H72.754a1.383 1.383 0 0 1-1.313-1.82l1.845-5.534a1.379 1.379 0 0 1 1.75-.874 1.382 1.382 0 0 1 .875 1.75l-1.238 3.711h18.3l-4.613-13.836h-9.074l-.607 1.822a1.384 1.384 0 0 1-2.626-.876l.922-2.767a1.384 1.384 0 0 1 1.313-.946h11.07c.595 0 1.123.381 1.311.946l5.534 16.603a1.383 1.383 0 0 1-1.312 1.821"/></defs><g><g transform="translate(-15 -2567)"><g><use fill="#ffe137" xlink:href="#dzxaa"/></g><g><use fill="#fff" xlink:href="#dzxab"/></g><g><use fill="#1a1a1a" xlink:href="#dzxac"/></g><g><use fill="#1a1a1a" xlink:href="#dzxad"/></g><g><use fill="#1a1a1a" xlink:href="#dzxae"/></g><g><use fill="#1a1a1a" xlink:href="#dzxaf"/></g><g><use fill="#1a1a1a" xlink:href="#dzxag"/></g><g><use fill="#1a1a1a" xlink:href="#dzxah"/></g><g><use fill="#e2e2e2" xlink:href="#dzxai"/></g><g><use fill="#1a1a1a" xlink:href="#dzxaj"/></g><g><use fill="#1a1a1a" xlink:href="#dzxak"/></g><g><use fill="#1a1a1a" xlink:href="#dzxal"/></g><g><use fill="#ffe137" xlink:href="#dzxam"/></g><g><use fill="#1a1a1a" xlink:href="#dzxan"/></g></g></g></svg>