<svg xmlns="http://www.w3.org/2000/svg" xmlns:xlink="http://www.w3.org/1999/xlink" width="81" height="75" viewBox="0 0 81 75"><defs><path id="b9h7a" d="M22.24 2448.717l43.753 32.846c7.778 5.84 18.818 4.268 24.658-3.51l1.171-1.56c5.84-7.779 4.267-18.819-3.51-24.658l-43.755-32.847c-7.779-5.84-18.818-4.267-24.657 3.511l-1.172 1.56c-5.84 7.779-4.267 18.819 3.511 24.658"/><path id="b9h7b" d="M26.96 2434.27h60.87l-.017 29.772H71.209v16.603l-44.249-.31z"/><path id="b9h7c" d="M26.94 2425.016h60.879v-13.836H26.94z"/><path id="b9h7d" d="M71.21 2482.03H26.934a1.383 1.383 0 0 1-1.384-1.383v-16.603a1.383 1.383 0 1 1 2.768 0v15.219H71.21a1.383 1.383 0 1 1 0 2.767"/><path id="b9h7e" d="M87.822 2465.427a1.383 1.383 0 0 1-1.384-1.384v-29.056H28.327v16.603a1.383 1.383 0 1 1-2.767 0v-17.986c0-.765.62-1.384 1.383-1.384h60.879c.764 0 1.384.619 1.384 1.384v30.439c0 .765-.62 1.384-1.384 1.384"/><path id="b9h7f" d="M87.822 2426.683H76.753a1.383 1.383 0 1 1 0-2.767h9.685v-11.07H28.327v2.768a1.384 1.384 0 1 1-2.767 0v-4.15c0-.765.62-1.384 1.383-1.384h60.879c.764 0 1.384.619 1.384 1.383v13.836c0 .765-.62 1.384-1.384 1.384"/><path id="b9h7g" d="M61.533 2426.688h-34.59a1.383 1.383 0 0 1-1.383-1.384v-4.15a1.383 1.383 0 1 1 2.767 0v2.767h33.206a1.384 1.384 0 0 1 0 2.767"/><path id="b9h7h" d="M76.744 2475.109l-5.534 5.534v-16.603h16.603l-5.535 5.534"/><path id="b9h7i" d="M71.214 2482.03a1.383 1.383 0 0 1-1.384-1.384v-16.602c0-.765.62-1.384 1.384-1.384h16.603a1.383 1.383 0 0 1 .978 2.362l-5.534 5.534c-.54.54-1.416.54-1.957 0a1.382 1.382 0 0 1 0-1.956l3.172-3.173h-11.88v11.88l3.174-3.173a1.382 1.382 0 1 1 1.956 1.956l-5.534 5.535a1.386 1.386 0 0 1-.978.405"/><path id="b9h7j" d="M32.474 2416.998a1.383 1.383 0 0 1-1.384-1.384v-4.15a1.383 1.383 0 1 1 2.767 0v4.15c0 .765-.62 1.384-1.383 1.384"/><path id="b9h7k" d="M40.774 2419.765a1.383 1.383 0 0 1-1.384-1.384v-6.918a1.383 1.383 0 1 1 2.767 0v6.918c0 .765-.619 1.384-1.383 1.384"/><path id="b9h7l" d="M49.074 2416.998a1.384 1.384 0 0 1-1.384-1.384v-4.15a1.384 1.384 0 1 1 2.767 0v4.15c0 .765-.619 1.384-1.383 1.384"/><path id="b9h7m" d="M57.374 2419.765a1.383 1.383 0 0 1-1.384-1.384v-6.918a1.383 1.383 0 1 1 2.767 0v6.918c0 .765-.62 1.384-1.383 1.384"/><path id="b9h7n" d="M65.684 2416.998a1.383 1.383 0 0 1-1.384-1.384v-4.15a1.383 1.383 0 1 1 2.767 0v4.15c0 .765-.62 1.384-1.383 1.384"/><path id="b9h7o" d="M73.984 2419.765a1.384 1.384 0 0 1-1.384-1.384v-6.918a1.383 1.383 0 0 1 2.767 0v6.918c0 .765-.619 1.384-1.383 1.384"/><path id="b9h7p" d="M82.284 2416.998a1.384 1.384 0 0 1-1.384-1.384v-4.15a1.384 1.384 0 1 1 2.767 0v4.15c0 .765-.619 1.384-1.383 1.384"/><path id="b9h7q" d="M32.474 2437.754a1.383 1.383 0 0 1-1.384-1.383v-2.767a1.383 1.383 0 1 1 2.767 0v2.767c0 .764-.62 1.383-1.383 1.383"/><path id="b9h7r" d="M40.774 2440.522a1.383 1.383 0 0 1-1.384-1.384v-5.534a1.383 1.383 0 1 1 2.767 0v5.534c0 .765-.619 1.384-1.383 1.384"/><path id="b9h7s" d="M49.074 2437.754a1.384 1.384 0 0 1-1.384-1.383v-2.767a1.384 1.384 0 1 1 2.767 0v2.767c0 .764-.619 1.383-1.383 1.383"/><path id="b9h7t" d="M57.374 2440.522a1.383 1.383 0 0 1-1.384-1.384v-5.534a1.383 1.383 0 1 1 2.767 0v5.534c0 .765-.62 1.384-1.383 1.384"/><path id="b9h7u" d="M65.684 2437.754a1.383 1.383 0 0 1-1.384-1.383v-2.767a1.383 1.383 0 1 1 2.767 0v2.767c0 .764-.62 1.383-1.383 1.383"/><path id="b9h7v" d="M73.984 2440.522a1.384 1.384 0 0 1-1.384-1.384v-5.534a1.384 1.384 0 1 1 2.767 0v5.534c0 .765-.619 1.384-1.383 1.384"/><path id="b9h7w" d="M82.284 2437.754a1.384 1.384 0 0 1-1.384-1.383v-2.767a1.384 1.384 0 1 1 2.767 0v2.767c0 .764-.619 1.383-1.383 1.383"/><path id="b9h7x" d="M54.614 2448.827h-15.22a1.384 1.384 0 1 1 0-2.767h15.22a1.383 1.383 0 1 1 0 2.767"/><path id="b9h7y" d="M57.381 2448.827h-2.767a1.384 1.384 0 1 1 0-2.767h2.767a1.383 1.383 0 1 1 0 2.767"/><path id="b9h7z" d="M76.747 2457.129H62.911a1.383 1.383 0 1 1 0-2.768h13.836c.737 0 1.432-.287 1.956-.812a2.75 2.75 0 0 0 .812-1.955 2.77 2.77 0 0 0-2.768-2.767H55.994a1.383 1.383 0 1 1 0-2.767h20.753a5.54 5.54 0 0 1 5.535 5.534 5.497 5.497 0 0 1-1.623 3.912 5.492 5.492 0 0 1-3.912 1.623"/><path id="b9h7A" d="M51.84 2457.127H38.004a1.384 1.384 0 1 1 0-2.767H51.84a1.383 1.383 0 1 1 0 2.767"/><path id="b9h7B" d="M65.678 2465.427h-5.534a1.383 1.383 0 1 1 0-2.767h5.534a1.384 1.384 0 1 1 0 2.767"/><path id="b9h7C" d="M43.539 2465.429h-5.535a5.54 5.54 0 0 1-5.534-5.535c0-1.475.576-2.866 1.623-3.911a5.493 5.493 0 0 1 3.911-1.623h12.453a1.383 1.383 0 1 1 0 2.767H38.004c-.737 0-1.431.288-1.955.812a2.75 2.75 0 0 0-.812 1.955 2.77 2.77 0 0 0 2.767 2.767h5.535a1.384 1.384 0 1 1 0 2.768"/><path id="b9h7D" d="M76.746 2457.127H64.294a1.383 1.383 0 1 1 0-2.767h12.452a1.383 1.383 0 1 1 0 2.767"/><path id="b9h7E" d="M60.147 2473.727H39.394a1.383 1.383 0 1 1 0-2.767h20.753a1.384 1.384 0 1 1 0 2.767"/><path id="b9h7F" d="M71.212 2473.727H60.143a1.383 1.383 0 0 1 0-2.767h11.069a1.383 1.383 0 1 1 0 2.767"/><path id="b9h7G" d="M76.748 2465.427h-5.534a1.383 1.383 0 1 1 0-2.767h5.534a1.383 1.383 0 1 1 0 2.767"/><path id="b9h7H" d="M65.684 2465.427h-4.15a1.383 1.383 0 1 1 0-2.767h4.15a1.384 1.384 0 1 1 0 2.767"/><path id="b9h7I" d="M60.147 2465.427H43.544a1.383 1.383 0 1 1 0-2.767h16.603a1.383 1.383 0 1 1 0 2.767"/><path id="b9h7J" d="M42.154 2465.427h-4.15a1.384 1.384 0 1 1 0-2.767h4.15a1.383 1.383 0 1 1 0 2.767"/><path id="b9h7K" d="M39.394 2447.437a2.768 2.768 0 1 0-5.535.001 2.768 2.768 0 0 0 5.535 0"/><path id="b9h7L" d="M36.62 2451.592a4.155 4.155 0 0 1-4.15-4.15 4.155 4.155 0 0 1 4.15-4.152 4.155 4.155 0 0 1 4.151 4.151 4.155 4.155 0 0 1-4.15 4.15m-.005-5.534a1.38 1.38 0 0 0-1.38 1.38 1.38 1.38 0 0 0 2.758 0 1.38 1.38 0 0 0-1.378-1.38"/><path id="b9h7M" d="M39.394 2472.347a2.768 2.768 0 1 0-5.535.001 2.768 2.768 0 0 0 5.535 0"/><path id="b9h7N" d="M36.62 2476.491a4.155 4.155 0 0 1-4.15-4.15 4.155 4.155 0 0 1 4.15-4.151 4.155 4.155 0 0 1 4.151 4.15 4.155 4.155 0 0 1-4.15 4.151m-.005-5.53c-.76 0-1.38.616-1.38 1.375a1.379 1.379 0 0 0 2.758 0c0-.76-.618-1.376-1.378-1.376"/></defs><g><g transform="translate(-15 -2410)"><g><use fill="#ffe137" xlink:href="#b9h7a"/></g><g><use fill="#fff" xlink:href="#b9h7b"/></g><g><use fill="#ffe137" xlink:href="#b9h7c"/></g><g><use fill="#1a1a1a" xlink:href="#b9h7d"/></g><g><use fill="#1a1a1a" xlink:href="#b9h7e"/></g><g><use fill="#1a1a1a" xlink:href="#b9h7f"/></g><g><use fill="#1a1a1a" xlink:href="#b9h7g"/></g><g><use fill="#e2e2e2" xlink:href="#b9h7h"/></g><g><use fill="#1a1a1a" xlink:href="#b9h7i"/></g><g><use fill="#1a1a1a" xlink:href="#b9h7j"/></g><g><use fill="#1a1a1a" xlink:href="#b9h7k"/></g><g><use fill="#1a1a1a" xlink:href="#b9h7l"/></g><g><use fill="#1a1a1a" xlink:href="#b9h7m"/></g><g><use fill="#1a1a1a" xlink:href="#b9h7n"/></g><g><use fill="#1a1a1a" xlink:href="#b9h7o"/></g><g><use fill="#1a1a1a" xlink:href="#b9h7p"/></g><g><use fill="#1a1a1a" xlink:href="#b9h7q"/></g><g><use fill="#1a1a1a" xlink:href="#b9h7r"/></g><g><use fill="#1a1a1a" xlink:href="#b9h7s"/></g><g><use fill="#1a1a1a" xlink:href="#b9h7t"/></g><g><use fill="#1a1a1a" xlink:href="#b9h7u"/></g><g><use fill="#1a1a1a" xlink:href="#b9h7v"/></g><g><use fill="#1a1a1a" xlink:href="#b9h7w"/></g><g><use fill="#1a1a1a" xlink:href="#b9h7x"/></g><g><use fill="#1a1a1a" xlink:href="#b9h7y"/></g><g><use fill="#1a1a1a" xlink:href="#b9h7z"/></g><g><use fill="#1a1a1a" xlink:href="#b9h7A"/></g><g><use fill="#1a1a1a" xlink:href="#b9h7B"/></g><g><use fill="#1a1a1a" xlink:href="#b9h7C"/></g><g><use fill="#1a1a1a" xlink:href="#b9h7D"/></g><g><use fill="#1a1a1a" xlink:href="#b9h7E"/></g><g><use fill="#1a1a1a" xlink:href="#b9h7F"/></g><g><use fill="#1a1a1a" xlink:href="#b9h7G"/></g><g><use fill="#1a1a1a" xlink:href="#b9h7H"/></g><g><use fill="#1a1a1a" xlink:href="#b9h7I"/></g><g><use fill="#1a1a1a" xlink:href="#b9h7J"/></g><g><use fill="#ffe137" xlink:href="#b9h7K"/></g><g><use fill="#1a1a1a" xlink:href="#b9h7L"/></g><g><use fill="#ffe137" xlink:href="#b9h7M"/></g><g><use fill="#1a1a1a" xlink:href="#b9h7N"/></g></g></g></svg>