<svg xmlns="http://www.w3.org/2000/svg" xmlns:xlink="http://www.w3.org/1999/xlink" width="84" height="81" viewBox="0 0 84 81"><defs><path id="8ejoa" d="M24.065 2136.71l44.874 31.3c7.977 5.565 18.955 3.609 24.52-4.369l1.116-1.6c5.564-7.978 3.607-18.956-4.37-24.52l-44.873-31.3c-7.978-5.564-18.956-3.608-24.52 4.37l-1.116 1.6c-5.565 7.978-3.609 18.955 4.369 24.52"/><path id="8ejob" d="M64.38 2129.507l17-10.967v25.225l-17 11.517z"/><path id="8ejoc" d="M47.927 2119.09l16.452 10.42v25.225l-17.549-10.968z"/><path id="8ejod" d="M47.24 2118.359l17.203 11.468 17.203-11.468-17.203-11.469z"/><path id="8ejoe" d="M81.648 2119.79v24.37l-7.168 4.301v-25.804z"/><path id="8ejof" d="M71.621 2112.092l-7.171-4.482"/><path id="8ejog" d="M71.613 2113.519c-.26 0-.522-.07-.758-.219l-7.17-4.481a1.434 1.434 0 1 1 1.518-2.43l7.17 4.48a1.434 1.434 0 0 1-.76 2.65"/><path id="8ejoh" d="M58.72 2125.532l5.732 3.583 17.203-10.752-5.733-3.583"/><path id="8ejoi" d="M64.446 2130.542c-.264 0-.527-.073-.76-.218l-5.732-3.583a1.433 1.433 0 1 1 1.52-2.43l4.972 3.106 14.498-9.06-3.788-2.368a1.433 1.433 0 1 1 1.52-2.43l5.732 3.583a1.433 1.433 0 0 1 0 2.43l-17.203 10.752a1.433 1.433 0 0 1-.759.218"/><path id="8ejoj" d="M64.453 2107.61l-17.203 10.751 6.885 4.305"/><path id="8ejok" d="M54.128 2124.093c-.26 0-.522-.07-.758-.219l-6.886-4.303a1.432 1.432 0 0 1 0-2.43l17.203-10.753a1.433 1.433 0 1 1 1.519 2.43l-15.257 9.538 4.94 3.087a1.434 1.434 0 0 1-.761 2.65"/><path id="8ejol" d="M57.275 2140.399c-.26 0-.522-.07-.758-.219l-10.032-6.27a1.433 1.433 0 1 1 1.519-2.43l10.032 6.27a1.435 1.435 0 0 1-.761 2.649"/><path id="8ejom" d="M71.615 2140.4a1.432 1.432 0 0 1-.76-2.65l10.034-6.27a1.432 1.432 0 1 1 1.519 2.43l-10.035 6.271a1.417 1.417 0 0 1-.758.219"/><path id="8ejon" d="M64.446 2157.07c-.277 0-.554-.08-.795-.24l-17.203-11.47a1.433 1.433 0 0 1-.638-1.192v-25.804a1.432 1.432 0 1 1 2.867 0v25.036l15.745 10.497 15.793-11.189v-24.344a1.432 1.432 0 1 1 2.868 0v25.087c0 .465-.225.9-.605 1.17l-17.203 12.185a1.436 1.436 0 0 1-.829.264"/><path id="8ejoo" d="M64.444 2157.062a1.433 1.433 0 0 1-1.434-1.434v-25.804a1.434 1.434 0 0 1 2.867 0v25.804c0 .793-.642 1.434-1.433 1.434"/><path id="8ejop" d="M64.45 2157.068c-.278 0-.555-.08-.796-.241L29.25 2133.89a1.433 1.433 0 0 1 .795-2.627h7.168a1.433 1.433 0 1 1 0 2.867h-2.434l29.647 19.765 33.601-23.802a1.435 1.435 0 0 1 2.22 1.517l-1.434 5.735a1.433 1.433 0 1 1-2.781-.694l.494-1.981-31.247 22.134a1.436 1.436 0 0 1-.829.264"/><path id="8ejoq" d="M57.284 2162.801a1.434 1.434 0 0 1-.896-2.554l7.168-5.734a1.434 1.434 0 0 1 1.792.002l2.863 2.291a1.433 1.433 0 1 1-1.792 2.238l-1.968-1.576-6.272 5.02c-.264.21-.58.313-.895.313"/><path id="8ejor" d="M64.444 2119.794a1.433 1.433 0 0 1-1.434-1.433v-22.937a1.433 1.433 0 1 1 2.867 0v22.937c0 .792-.642 1.433-1.433 1.433"/><path id="8ejos" d="M68.745 2098.287c-.367 0-.734-.14-1.014-.42l-3.287-3.287-3.287 3.287a1.433 1.433 0 1 1-2.027-2.027l4.3-4.3c.56-.56 1.468-.56 2.028 0l4.3 4.3a1.434 1.434 0 0 1-1.013 2.447"/><path id="8ejot" d="M98.851 2132.698h-7.167a1.433 1.433 0 1 1 0-2.868h7.167a1.434 1.434 0 0 1 0 2.868"/><path id="8ejou" d="M31.476 2139.86a1.434 1.434 0 0 1-1.39-1.086l-1.433-5.734a1.433 1.433 0 1 1 2.781-.695l1.435 5.735a1.433 1.433 0 0 1-1.393 1.78"/></defs><g><g transform="translate(-17 -2091)"><g><use fill="#ffe137" xlink:href="#8ejoa"/></g><g><use fill="#fff" xlink:href="#8ejob"/></g><g><use fill="#fff" xlink:href="#8ejoc"/></g><g><use fill="#e2e2e2" xlink:href="#8ejod"/></g><g><use fill="#ffe137" xlink:href="#8ejoe"/></g><g><use fill="#e2e2e2" xlink:href="#8ejof"/></g><g><use fill="#1a1a1a" xlink:href="#8ejog"/></g><g><use fill="#e2e2e2" xlink:href="#8ejoh"/></g><g><use fill="#1a1a1a" xlink:href="#8ejoi"/></g><g><use fill="#e2e2e2" xlink:href="#8ejoj"/></g><g><use fill="#1a1a1a" xlink:href="#8ejok"/></g><g><use fill="#1a1a1a" xlink:href="#8ejol"/></g><g><use fill="#1a1a1a" xlink:href="#8ejom"/></g><g><use fill="#1a1a1a" xlink:href="#8ejon"/></g><g><use fill="#1a1a1a" xlink:href="#8ejoo"/></g><g><use fill="#1a1a1a" xlink:href="#8ejop"/></g><g><use fill="#1a1a1a" xlink:href="#8ejoq"/></g><g><use fill="#1a1a1a" xlink:href="#8ejor"/></g><g><use fill="#1a1a1a" xlink:href="#8ejos"/></g><g><use fill="#1a1a1a" xlink:href="#8ejot"/></g><g><use fill="#1a1a1a" xlink:href="#8ejou"/></g></g></g></svg>