<svg xmlns="http://www.w3.org/2000/svg" xmlns:xlink="http://www.w3.org/1999/xlink" width="20" height="20" viewBox="0 0 20 20"><defs><path id="jd9ma" d="M334.689 644.123a.698.698 0 0 1 .301.714l-2.857 17.143a.704.704 0 0 1-.357.502.685.685 0 0 1-.614.034l-5.056-2.065-2.7 3.292a.657.657 0 0 1-.548.257.603.603 0 0 1-.245-.045.7.7 0 0 1-.34-.262.697.697 0 0 1-.129-.407v-3.895l9.643-11.82-11.93 10.324-4.41-1.808c-.275-.104-.423-.309-.446-.614-.015-.297.104-.517.357-.658L333.93 644.1c.111-.067.23-.1.357-.1.149 0 .283.04.402.123z"/></defs><g><g transform="translate(-315 -644)"><use fill="#fff" xlink:href="#jd9ma"/></g></g></svg>