<svg xmlns="http://www.w3.org/2000/svg" xmlns:xlink="http://www.w3.org/1999/xlink" width="80" height="78" viewBox="0 0 80 78"><defs><path id="y1oya" d="M87.974 2284.433l-43.672 33.02c-7.764 5.87-18.783 4.29-24.612-3.53l-1.169-1.568c-5.828-7.82-4.259-18.917 3.505-24.788l43.672-33.02c7.764-5.87 18.783-4.29 24.611 3.53l1.17 1.567c5.828 7.82 4.259 18.919-3.505 24.789"/><path id="y1oyb" d="M24 2289.5c0-18.502 14.998-33.5 33.5-33.5 18.502 0 33.5 14.998 33.5 33.5 0 18.502-14.998 33.5-33.5 33.5-18.502 0-33.5-14.998-33.5-33.5z"/><path id="y1oyc" d="M33 2288c0-13.807 11.193-25 25-25s25 11.193 25 25-11.193 25-25 25-25-11.193-25-25z"/><path id="y1oyd" d="M60 2305.5c0-8.56 6.94-15.5 15.5-15.5 8.56 0 15.5 6.94 15.5 15.5 0 8.56-6.94 15.5-15.5 15.5-8.56 0-15.5-6.94-15.5-15.5z"/><path id="y1oye" d="M72 2325a4 4 0 1 1 8 0 4 4 0 0 1-8 0z"/><path id="y1oyf" d="M58 2254c-19.33 0-35 15.67-35 35s15.67 35 35 35v-2.917c-17.72 0-32.083-14.364-32.083-32.083 0-17.72 14.364-32.083 32.083-32.083 17.72 0 32.083 14.364 32.083 32.083H93c0-19.33-15.67-35-35-35z"/><path id="y1oyg" d="M57.998 2261.29c-15.303 0-27.708 12.405-27.708 27.708 0 15.303 12.405 27.709 27.708 27.709v-2.917c-13.692 0-24.791-11.1-24.791-24.791 0-13.692 11.1-24.792 24.791-24.792 13.692 0 24.792 11.1 24.792 24.791h2.917c0-15.303-12.406-27.708-27.709-27.708z"/><path id="y1oyh" d="M90.074 2307.951h-3.297c-.664 0-1.245.45-1.41 1.094a10.204 10.204 0 0 1-1.087 2.624 1.458 1.458 0 0 0 .225 1.773l2.332 2.332-2.061 2.062-2.333-2.333c-.47-.47-1.2-.563-1.773-.225-.82.483-1.703.849-2.624 1.087a1.458 1.458 0 0 0-1.093 1.41v3.298h-2.916l.002-3.294c0-.665-.45-1.245-1.094-1.412a10.203 10.203 0 0 1-2.624-1.086 1.458 1.458 0 0 0-1.772.225l-2.333 2.332-2.061-2.06 2.332-2.334c.47-.47.563-1.2.225-1.772a10.204 10.204 0 0 1-1.086-2.624 1.458 1.458 0 0 0-1.412-1.094h-3.297v-2.915h3.296c.664 0 1.245-.45 1.411-1.094.238-.92.604-1.804 1.086-2.624a1.458 1.458 0 0 0-.224-1.773l-2.333-2.332 2.061-2.062 2.333 2.333c.47.47 1.2.563 1.773.225.82-.483 1.703-.849 2.624-1.087a1.458 1.458 0 0 0 1.093-1.41v-3.298h2.915v3.296c0 .664.45 1.245 1.093 1.41.92.239 1.804.604 2.624 1.087a1.458 1.458 0 0 0 1.773-.225l2.332-2.332 2.062 2.061-2.333 2.333c-.47.47-.563 1.2-.224 1.773.482.82.848 1.703 1.086 2.624a1.458 1.458 0 0 0 1.41 1.093h3.299zm1.468-5.826h-3.677c-.154-.433-.33-.858-.528-1.273l2.6-2.602c.57-.57.57-1.492 0-2.062l-4.125-4.126a1.458 1.458 0 0 0-2.062 0l-2.602 2.602c-.415-.197-.84-.374-1.273-.528v-3.678c0-.805-.653-1.458-1.458-1.458h-5.834c-.805 0-1.458.653-1.458 1.458v3.678c-.433.154-.858.33-1.273.527l-2.602-2.6a1.458 1.458 0 0 0-2.062 0l-4.126 4.125c-.569.57-.569 1.493 0 2.062l2.602 2.602c-.197.415-.374.84-.528 1.273h-3.678c-.805 0-1.458.653-1.458 1.458v5.834c0 .805.653 1.458 1.458 1.458h3.678c.154.433.33.858.527 1.273l-2.6 2.602c-.57.57-.57 1.492 0 2.062l4.125 4.125c.57.57 1.493.57 2.062 0l2.602-2.601c.415.197.84.374 1.273.528v3.678c0 .805.653 1.458 1.458 1.458h5.834c.805 0 1.458-.653 1.458-1.458v-3.677c.433-.154.858-.33 1.273-.528l2.602 2.6c.57.57 1.492.57 2.062 0l4.126-4.125c.569-.57.569-1.493 0-2.062l-2.602-2.602c.198-.415.374-.84.528-1.273h3.678c.805 0 1.458-.653 1.458-1.458v-5.834c0-.805-.653-1.458-1.458-1.458z"/><path id="y1oyi" d="M75.503 2309.422a2.92 2.92 0 1 1 0-5.838 2.92 2.92 0 0 1 0 5.838zm0-8.752a5.833 5.833 0 1 0 0 11.667 5.833 5.833 0 0 0 0-11.667z"/><path id="y1oyj" d="M56.54 2271.5v-8.75h2.92v8.75z"/><path id="y1oyk" d="M31.75 2290.46v-2.92h8.75v2.92z"/><path id="y1oyl" d="M43.844 2278.364l-5.833-5.833 2.065-2.065 5.833 5.833z"/><path id="y1oym" d="M40.07 2307.53l-2.064-2.066 5.833-5.833 2.065 2.065z"/><path id="y1oyn" d="M56.544 2277.33v11.063l-6.864 6.864 2.062 2.062 7.292-7.291c.273-.274.427-.645.427-1.031v-11.667z"/></defs><g><g transform="translate(-15 -2251)"><g><g><use fill="#ffe137" xlink:href="#y1oya"/></g><g><use fill="#e2e2e2" xlink:href="#y1oyb"/></g><g><use fill="#fff" xlink:href="#y1oyc"/></g><g><use fill="#ffe137" xlink:href="#y1oyd"/></g><g><use fill="#fff" xlink:href="#y1oye"/></g></g><g><use xlink:href="#y1oyf"/></g><g><use xlink:href="#y1oyg"/></g><g><use xlink:href="#y1oyh"/></g><g><use xlink:href="#y1oyi"/></g><g><use xlink:href="#y1oyj"/></g><g><use xlink:href="#y1oyk"/></g><g><use xlink:href="#y1oyl"/></g><g><use xlink:href="#y1oym"/></g><g><use xlink:href="#y1oyn"/></g></g></g></svg>