<?xml version="1.0" encoding="iso-8859-1"?>
<!-- Generator: Adobe Illustrator 19.1.0, SVG Export Plug-In . SVG Version: 6.00 Build 0)  -->
<svg xmlns="http://www.w3.org/2000/svg" xmlns:xlink="http://www.w3.org/1999/xlink" version="1.1" id="Capa_1" x="0px" y="0px" viewBox="70 70 400 400" style="enable-background:new 0 0 540.078 540.078;" xml:space="preserve" width="24" height="32">
<g>
	<g>
		<path d="M423.061,0H117.017C92.191,0,72.01,20.199,72.01,45.007v450.064c0,24.808,20.181,45.007,45.007,45.007h306.044    c24.826,0,45.007-20.199,45.007-45.006V45.007C468.068,20.199,447.887,0,423.061,0z M450.065,495.072    c0,14.888-12.116,27.004-27.004,27.004H117.017c-14.888,0-27.004-12.116-27.004-27.004V45.007    c0-14.888,12.116-27.004,27.004-27.004h306.044c14.888,0,27.004,12.116,27.004,27.004V495.072z" fill="#c0c0bf"/>
		<path d="M189.028,198.029H135.02c-4.968,0-9.001,4.032-9.001,9.001v54.008c0,4.968,4.032,9.001,9.001,9.001h54.007    c4.969,0,9.002-4.033,9.002-9.001V207.03C198.029,202.062,193.997,198.029,189.028,198.029z M180.026,252.036h-36.005v-36.005    h36.005V252.036z" fill="#c0c0bf"/>
		<path d="M297.043,198.029h-54.008c-4.968,0-9.001,4.032-9.001,9.001v54.008c0,4.968,4.032,9.001,9.001,9.001h54.008    c4.969,0,9.001-4.033,9.001-9.001V207.03C306.044,202.062,302.012,198.029,297.043,198.029z M288.041,252.036h-36.005v-36.005    h36.005V252.036z" fill="#c0c0bf"/>
		<path d="M405.059,198.029h-54.008c-4.968,0-9.001,4.032-9.001,9.001v54.008c0,4.968,4.032,9.001,9.001,9.001h54.008    c4.968,0,9.001-4.033,9.001-9.001V207.03C414.06,202.062,410.028,198.029,405.059,198.029z M396.057,252.036h-36.005v-36.005    h36.005V252.036z" fill="#c0c0bf"/>
		<path d="M189.028,306.045H135.02c-4.968,0-9.001,4.032-9.001,9.001v54.008c0,4.968,4.032,9.001,9.001,9.001h54.007    c4.969,0,9.002-4.033,9.002-9.001v-54.008C198.029,310.078,193.997,306.045,189.028,306.045z M180.026,360.052h-36.005v-36.005    h36.005V360.052z" fill="#c0c0bf"/>
		<path d="M297.043,306.045h-54.008c-4.968,0-9.001,4.032-9.001,9.001v54.008c0,4.968,4.032,9.001,9.001,9.001h54.008    c4.969,0,9.001-4.033,9.001-9.001v-54.008C306.044,310.078,302.012,306.045,297.043,306.045z M288.041,360.052h-36.005v-36.005    h36.005V360.052z" fill="#c0c0bf"/>
		<path d="M405.059,306.045h-54.008c-4.968,0-9.001,4.032-9.001,9.001v54.008c0,4.968,4.032,9.001,9.001,9.001h54.008    c4.968,0,9.001-4.033,9.001-9.001v-54.008C414.06,310.078,410.028,306.045,405.059,306.045z M396.057,360.052h-36.005v-36.005    h36.005V360.052z" fill="#c0c0bf"/>
		<path d="M189.028,414.06H135.02c-4.968,0-9.001,4.032-9.001,9.001v54.008c0,4.968,4.032,9.001,9.001,9.001h54.007    c4.969,0,9.002-4.032,9.002-9.001v-54.008C198.029,418.093,193.997,414.06,189.028,414.06z M180.026,468.068h-36.005v-36.005    h36.005V468.068z" fill="#c0c0bf"/>
		<path d="M297.043,414.06h-54.008c-4.968,0-9.001,4.032-9.001,9.001v54.008c0,4.968,4.032,9.001,9.001,9.001h54.008    c4.969,0,9.001-4.032,9.001-9.001v-54.008C306.044,418.093,302.012,414.06,297.043,414.06z M288.041,468.068h-36.005v-36.005    h36.005V468.068z" fill="#c0c0bf"/>
		<path d="M405.059,414.06h-54.008c-4.968,0-9.001,4.032-9.001,9.001v54.008c0,4.968,4.032,9.001,9.001,9.001h54.008    c4.968,0,9.001-4.032,9.001-9.001v-54.008C414.06,418.093,410.028,414.06,405.059,414.06z M396.057,468.068h-36.005v-36.005    h36.005V468.068z" fill="#c0c0bf"/>
		<path d="M405.059,54.008H135.02c-4.968,0-9.001,4.032-9.001,9.001v90.013c0,4.968,4.032,9.001,9.001,9.001h270.039    c4.968,0,9.001-4.032,9.001-9.001V63.009C414.06,58.041,410.028,54.008,405.059,54.008z M396.057,144.021H144.021V72.01h252.036    V144.021z" fill="#c0c0bf"/>
	</g>
</g>
<g>
</g>
<g>
</g>
<g>
</g>
<g>
</g>
<g>
</g>
<g>
</g>
<g>
</g>
<g>
</g>
<g>
</g>
<g>
</g>
<g>
</g>
<g>
</g>
<g>
</g>
<g>
</g>
<g>
</g>
</svg>
