<svg xmlns="http://www.w3.org/2000/svg" xmlns:xlink="http://www.w3.org/1999/xlink" width="23" height="15" viewBox="0 0 23 15"><defs><path id="mnuta" d="M303.408 5109.926h6.654c.463 3.326-.935 8.315-6.654 8.315-3.826 0-6.928-3.108-6.928-6.941 0-3.833 3.102-6.94 6.928-6.94 1.795 0 3.43.684 4.662 1.806-1.45 1.372-1.402 1.453-1.972 2.024-.712-.59-1.488-1.013-2.69-1.013-2.273 0-4.047 1.846-4.047 4.123s1.774 4.123 4.047 4.123c2.246 0 3.158-.97 3.746-2.752-1.084 0-3.746.004-3.746.004v-2.749m12.484.137h2.4v1.718h-2.4v2.474h-1.715v-2.474h-2.47v-1.718h2.47v-2.405h1.715v2.405"/></defs><g><g transform="translate(-296 -5104)"><use xlink:href="#mnuta"/></g></g></svg>
