<svg xmlns="http://www.w3.org/2000/svg" xmlns:xlink="http://www.w3.org/1999/xlink" width="20" height="20" viewBox="0 0 20 20"><defs><path id="vbvea" d="M275.074 5119.879c0 .605-.49 1.095-1.095 1.095h-5.057v-7.685h2.58l.386-2.995h-2.966v-1.912c0-.867.241-1.457 1.484-1.457l1.586-.001v-2.679a21.3 21.3 0 0 0-2.31-.118c-2.287 0-3.853 1.396-3.853 3.96v2.207h-2.586v2.995h2.586v7.685h-9.504c-.605 0-1.095-.49-1.095-1.095v-17.653c0-.606.49-1.096 1.095-1.096h17.654c.604 0 1.095.49 1.095 1.096v17.653"/></defs><g><g transform="translate(-255 -5101)"><use xlink:href="#vbvea"/></g></g></svg>
