<svg xmlns="http://www.w3.org/2000/svg" xmlns:xlink="http://www.w3.org/1999/xlink" width="21" height="18" viewBox="0 0 21 18"><defs><path id="1c07a" d="M358.966 5102.952a8.18 8.18 0 0 1-2.639 1.032 4.095 4.095 0 0 0-3.031-1.344c-2.292 0-4.152 1.907-4.152 4.259 0 .334.035.658.107.97-3.452-.178-6.512-1.872-8.562-4.452a4.336 4.336 0 0 0-.562 2.144c0 1.477.733 2.78 1.848 3.544a4.078 4.078 0 0 1-1.883-.53v.051c0 2.065 1.432 3.787 3.334 4.177a4.047 4.047 0 0 1-1.876.075c.528 1.69 2.061 2.923 3.88 2.956a8.202 8.202 0 0 1-6.15 1.765 11.562 11.562 0 0 0 6.367 1.912c7.64 0 11.817-6.489 11.817-12.117 0-.186-.003-.37-.01-.552a8.52 8.52 0 0 0 2.07-2.205 8.135 8.135 0 0 1-2.384.67 4.25 4.25 0 0 0 1.826-2.355"/></defs><g><g transform="translate(-339 -5102)"><use fill="#bdbdbd" xlink:href="#1c07a"/></g></g></svg>