<svg xmlns="http://www.w3.org/2000/svg" xmlns:xlink="http://www.w3.org/1999/xlink" width="12" height="12" viewBox="0 0 12 12"><defs><path id="zfrda" d="M53 2983.507v.986c0 .272.083.504.25.697a.82.82 0 0 0 .651.289h5.422l-2.256 2.264a.915.915 0 0 0-.293.693c0 .278.098.509.293.694l.577.585c.19.19.421.285.694.285.267 0 .5-.095.7-.285l5.015-5.022a.944.944 0 0 0 .285-.693c0-.267-.095-.5-.285-.7l-5.014-5.007a.956.956 0 0 0-.701-.293.947.947 0 0 0-.694.293l-.577.57a.956.956 0 0 0-.293.7c0 .273.098.506.293.701l2.256 2.257h-5.422a.82.82 0 0 0-.65.289c-.168.193-.251.425-.251.697z"/></defs><g><g transform="translate(-53 -2978)"><use fill="#39bb44" xlink:href="#zfrda"/></g></g></svg>