<svg xmlns="http://www.w3.org/2000/svg" xmlns:xlink="http://www.w3.org/1999/xlink" width="10" height="10" viewBox="0 0 10 10"><defs><path id="gwksa" d="M24.714 4451.672c0 .248-.11.731-.214.96-.144.337-.53.558-.841.73-.407.221-.821.352-1.284.352-.641 0-1.22-.262-1.807-.476a6.45 6.45 0 0 1-1.208-.572c-1.172-.725-2.587-2.14-3.311-3.312a6.449 6.449 0 0 1-.573-1.207c-.214-.587-.476-1.166-.476-1.808 0-.462.131-.876.352-1.283.172-.31.393-.697.731-.842a3.07 3.07 0 0 1 .96-.214c.048 0 .096 0 .144.02.145.049.297.387.366.525.22.393.434.793.662 1.18.11.18.317.4.317.614 0 .42-1.248 1.035-1.248 1.407 0 .187.172.428.269.594.697 1.255 1.566 2.125 2.822 2.822.165.096.407.269.593.269.373 0 .987-1.25 1.407-1.25.214 0 .435.208.614.318.387.228.787.442 1.18.663.138.069.476.22.525.365.02.048.02.097.02.145z"/></defs><g><g transform="translate(-15 -4444)"><use fill="#3ec449" xlink:href="#gwksa"/></g></g></svg>