<svg xmlns="http://www.w3.org/2000/svg" xmlns:xlink="http://www.w3.org/1999/xlink" width="21" height="32" viewBox="0 0 21 32"><defs><path id="pn0aa" d="M232.05 50.65L229.502 47h5.096zm-2.999-25.95c0-.65.55-1.2 1.2-1.2h3.598c.65 0 1.2.55 1.2 1.2V26h-5.998zm3.505 5.3h2.493v16h-2.493zm-3.505-1v-2h5.998v2zm0 17V30h2.493v16zm6.999.382V24.7c0-1.2-1-2.2-2.2-2.2h-3.6c-1.2 0-2.2 1-2.2 2.2v21.8c0 .16.057.29.154.378l3.446 4.922c.1.1.25.2.4.2.15 0 .3-.1.4-.25l3.374-4.82a.477.477 0 0 0 .226-.43.406.406 0 0 0 0-.118z"/><path id="pn0ab" d="M232.045 51l2.927-4.2h-5.854zm-2.159-3.8h4.338l-2.169 3.1zm-1.035-21h6.398v-1.5c0-.76-.64-1.4-1.4-1.4h-3.598c-.76 0-1.4.64-1.4 1.4zm.4-.4v-1.1c0-.54.46-1 1-1h3.598c.54 0 1 .46 1 1v1.1zm3.104 4v16.4h2.894V29.8zm.4.4h2.093v15.6h-2.092zm2.494-1v-2.4h-6.398v2.4zm-.4-.4h-5.597v-1.6h5.596zm-5.998 17.4h2.894V29.8h-2.894zm.4-16h2.093v15.6h-2.092zm6.6 16.272c-.001.15-.048.238-.129.286l-3.436 4.877c-.07.106-.163.165-.236.165-.071 0-.173-.055-.259-.141l-3.422-4.896a.34.34 0 0 1-.119-.263V24.7c0-1.09.91-2 2-2h3.6c1.09 0 2 .91 2 2v21.682s.005.068.002.09zm.399-.104V24.7c0-1.31-1.09-2.4-2.4-2.4h-3.6a2.42 2.42 0 0 0-2.4 2.4v21.8c0 .211.077.397.22.526l3.416 4.889c.177.18.368.285.564.285.22 0 .43-.133.566-.339l3.372-4.816c.144-.064.262-.285.262-.545a.465.465 0 0 0 0-.132z"/><path id="pn0ac" d="M245.9 51h-5.65c-.1 0-.2-.1-.2-.2V23.5c0-.3.2-.5.5-.5h5.05c.3 0 .5.2.5.5v27.3c0 .1-.1.2-.2.2zm-.35-29h-5c-.85 0-1.5.65-1.5 1.5v27.3c0 .65.55 1.2 1.2 1.2h5.65c.65 0 1.15-.55 1.15-1.2V23.5c0-.85-.65-1.5-1.5-1.5z"/><path id="pn0ad" d="M246.3 50.8V23.5c0-.41-.29-.7-.7-.7h-5.05c-.41 0-.7.29-.7.7v27.3c0 .21.19.4.4.4h5.65c.21 0 .4-.19.4-.4zm-.4 0s-5.65-.01-5.65 0V23.5c0-.19.11-.3.3-.3h5.05c.19 0 .3.11.3.3v27.3zm.95-27.3v27.3c0 .552-.422 1-.95 1h-5.65c-.54 0-1-.46-1-1V23.5c0-.74.56-1.3 1.3-1.3h5c.74 0 1.3.56 1.3 1.3zm-6.3-1.7c-.96 0-1.7.74-1.7 1.7v27.3c0 .76.64 1.4 1.4 1.4h5.65c.754 0 1.35-.632 1.35-1.4V23.5c0-.96-.74-1.7-1.7-1.7z"/><path id="pn0ae" d="M239.8 28.2v-1.4h3.4v1.4z"/><path id="pn0af" d="M239.8 25.2v-1.4h3.4v1.4z"/><path id="pn0ag" d="M239.8 31.2v-1.4h3.4v1.4z"/><path id="pn0ah" d="M239.8 34.2v-1.4h3.4v1.4z"/><path id="pn0ai" d="M239.8 37.2v-1.4h3.4v1.4z"/><path id="pn0aj" d="M239.8 40.2v-1.4h3.4v1.4z"/><path id="pn0ak" d="M239.8 43.2v-1.4h3.4v1.4z"/><path id="pn0al" d="M239.8 46.2v-1.4h3.4v1.4z"/><path id="pn0am" d="M239.8 49.2v-1.4h3.4v1.4z"/></defs><g><g transform="translate(-227 -21)"><g><use fill="#c0c0bf" xlink:href="#pn0aa"/></g><g><use fill="#c0c0bf" xlink:href="#pn0ab"/></g><g><use fill="#c0c0bf" xlink:href="#pn0ac"/></g><g><use fill="#c0c0bf" xlink:href="#pn0ad"/></g><g><use fill="#c0c0bf" xlink:href="#pn0ae"/></g><g><use fill="#c0c0bf" xlink:href="#pn0af"/></g><g><use fill="#c0c0bf" xlink:href="#pn0ag"/></g><g><use fill="#c0c0bf" xlink:href="#pn0ah"/></g><g><use fill="#c0c0bf" xlink:href="#pn0ai"/></g><g><use fill="#c0c0bf" xlink:href="#pn0aj"/></g><g><use fill="#c0c0bf" xlink:href="#pn0ak"/></g><g><use fill="#c0c0bf" xlink:href="#pn0al"/></g><g><use fill="#c0c0bf" xlink:href="#pn0am"/></g></g></g></svg>